<?xml version="1.0" encoding="utf-8"?>
<!-- Generator: Adobe Illustrator 23.0.1, SVG Export Plug-In . SVG Version: 6.00 Build 0)  -->
<svg version="1.1" id="Layer_1" xmlns="http://www.w3.org/2000/svg" xmlns:xlink="http://www.w3.org/1999/xlink" x="0px" y="0px"
	 viewBox="0 0 1080 1080" style="enable-background:new 0 0 1080 1080;" xml:space="preserve">
<style type="text/css">
	.st0{fill:#19120A;}
	.st1{fill:#02203A;}
	.st2{fill:url(#SVGID_1_);}
	.st3{fill:url(#SVGID_2_);}
	.st4{fill:url(#SVGID_3_);}
	.st5{fill:url(#SVGID_4_);}
	.st6{fill:url(#SVGID_5_);}
	.st7{fill:url(#SVGID_6_);}
	.st8{fill:url(#SVGID_7_);}
	.st9{fill:url(#SVGID_8_);}
	.st10{fill:url(#SVGID_9_);}
	.st11{fill:url(#SVGID_10_);}
	.st12{fill:url(#SVGID_11_);}
	.st13{fill:url(#SVGID_12_);}
	.st14{fill:url(#SVGID_13_);}
	.st15{fill:url(#SVGID_14_);}
	.st16{fill:url(#SVGID_15_);}
	.st17{fill:url(#SVGID_16_);}
	.st18{fill:url(#SVGID_17_);}
	.st19{fill:url(#SVGID_18_);}
	.st20{fill:url(#SVGID_19_);}
	.st21{fill:url(#SVGID_20_);}
	.st22{fill:url(#SVGID_21_);}
	.st23{fill:url(#SVGID_22_);}
	.st24{fill:url(#SVGID_23_);}
	.st25{fill:url(#SVGID_24_);}
	.st26{fill:url(#SVGID_25_);}
	.st27{fill:url(#SVGID_26_);}
	.st28{fill:url(#SVGID_27_);}
	.st29{fill:url(#SVGID_28_);}
	.st30{fill:url(#SVGID_29_);}
	.st31{fill:url(#SVGID_30_);}
	.st32{fill:url(#SVGID_31_);}
	.st33{fill:url(#SVGID_32_);}
	.st34{fill:url(#SVGID_33_);}
	.st35{fill:url(#SVGID_34_);}
	.st36{fill:url(#SVGID_35_);}
	.st37{fill:url(#SVGID_36_);}
	.st38{fill:url(#SVGID_37_);}
	.st39{fill:url(#SVGID_38_);}
	.st40{fill:url(#SVGID_39_);}
	.st41{fill:url(#SVGID_40_);}
	.st42{fill:url(#SVGID_41_);}
	.st43{fill:url(#SVGID_42_);}
	.st44{fill:url(#SVGID_43_);}
	.st45{fill:url(#SVGID_44_);}
	.st46{fill:url(#SVGID_45_);}
	.st47{fill:url(#SVGID_46_);}
	.st48{fill:url(#SVGID_47_);}
	.st49{fill:url(#SVGID_48_);}
	.st50{fill:url(#SVGID_49_);}
	.st51{fill:url(#SVGID_50_);}
	.st52{fill:url(#SVGID_51_);}
	.st53{fill:url(#SVGID_52_);}
	.st54{fill:url(#SVGID_53_);}
	.st55{fill:url(#SVGID_54_);}
	.st56{fill:url(#SVGID_55_);}
	.st57{fill:url(#SVGID_56_);}
	.st58{fill:url(#SVGID_57_);}
	.st59{fill:url(#SVGID_58_);}
	.st60{fill:url(#SVGID_59_);}
	.st61{fill:url(#SVGID_60_);}
	.st62{fill:url(#SVGID_61_);}
	.st63{fill:url(#SVGID_62_);}
	.st64{fill:url(#SVGID_63_);}
	.st65{fill:url(#SVGID_64_);}
	.st66{fill:url(#SVGID_65_);}
	.st67{fill:url(#SVGID_66_);}
	.st68{fill:url(#SVGID_67_);}
	.st69{fill:url(#SVGID_68_);}
	.st70{fill:url(#SVGID_69_);}
	.st71{fill:url(#SVGID_70_);}
	.st72{fill:url(#SVGID_71_);}
	.st73{fill:url(#SVGID_72_);}
	.st74{fill:url(#SVGID_73_);}
	.st75{fill:url(#SVGID_74_);}
	.st76{fill:url(#SVGID_75_);}
	.st77{fill:url(#SVGID_76_);}
	.st78{fill:url(#SVGID_77_);}
	.st79{fill:url(#SVGID_78_);}
	.st80{fill:url(#SVGID_79_);}
	.st81{fill:url(#SVGID_80_);}
	.st82{fill:url(#SVGID_81_);}
	.st83{fill:url(#SVGID_82_);}
	.st84{fill:url(#SVGID_83_);}
	.st85{fill:url(#SVGID_84_);}
	.st86{fill:url(#SVGID_85_);}
	.st87{fill:url(#SVGID_86_);}
	.st88{fill:url(#SVGID_87_);}
	.st89{fill:url(#SVGID_88_);}
	.st90{fill:url(#SVGID_89_);}
	.st91{fill:url(#SVGID_90_);}
	.st92{fill:#091D35;}
	.st93{fill:url(#SVGID_91_);}
	.st94{fill:url(#SVGID_92_);}
	.st95{fill:url(#SVGID_93_);}
	.st96{fill:url(#SVGID_94_);}
	.st97{fill:url(#SVGID_95_);}
	.st98{fill:url(#SVGID_96_);}
	.st99{fill:url(#SVGID_97_);}
	.st100{fill:url(#SVGID_98_);}
	.st101{fill:url(#SVGID_99_);}
	.st102{fill:url(#SVGID_100_);}
	.st103{fill:url(#SVGID_101_);}
	.st104{fill:url(#SVGID_102_);}
	.st105{fill:url(#SVGID_103_);}
	.st106{fill:url(#SVGID_104_);}
	.st107{fill:url(#SVGID_105_);}
	.st108{fill:url(#SVGID_106_);}
	.st109{fill:url(#SVGID_107_);}
	.st110{fill:url(#SVGID_108_);}
	.st111{fill:url(#SVGID_109_);}
	.st112{fill:url(#SVGID_110_);}
	.st113{fill:url(#SVGID_111_);}
	.st114{fill:url(#SVGID_112_);}
	.st115{fill:url(#SVGID_113_);}
	.st116{fill:url(#SVGID_114_);}
	.st117{fill:url(#SVGID_115_);}
	.st118{fill:url(#SVGID_116_);}
	.st119{fill:url(#SVGID_117_);}
	.st120{fill:#FFFFFF;}
	.st121{fill:url(#SVGID_118_);}
	.st122{fill:url(#SVGID_119_);}
	.st123{fill:url(#SVGID_120_);}
	.st124{fill:url(#SVGID_121_);}
	.st125{fill:url(#SVGID_122_);}
	.st126{fill:url(#SVGID_123_);}
	.st127{fill:url(#SVGID_124_);}
	.st128{fill:url(#SVGID_125_);}
	.st129{fill:url(#SVGID_126_);}
	.st130{fill:url(#SVGID_127_);}
	.st131{fill:url(#SVGID_128_);}
	.st132{fill:url(#SVGID_129_);}
	.st133{fill:url(#SVGID_130_);}
	.st134{fill:url(#SVGID_131_);}
	.st135{fill:url(#SVGID_132_);}
	.st136{fill:url(#SVGID_133_);}
	.st137{fill:url(#SVGID_134_);}
	.st138{fill:url(#SVGID_135_);}
	.st139{fill:url(#SVGID_136_);}
	.st140{fill:url(#SVGID_137_);}
	.st141{fill:url(#SVGID_138_);}
	.st142{fill:url(#SVGID_139_);}
	.st143{fill:url(#SVGID_140_);}
	.st144{fill:url(#SVGID_141_);}
	.st145{fill:url(#SVGID_142_);}
	.st146{fill:url(#SVGID_143_);}
	.st147{fill:url(#SVGID_144_);}
	.st148{fill:url(#SVGID_145_);}
	.st149{fill:url(#SVGID_146_);}
	.st150{fill:url(#SVGID_147_);}
	.st151{fill:url(#SVGID_148_);}
	.st152{fill:url(#SVGID_149_);}
	.st153{fill:url(#SVGID_150_);}
	.st154{fill:url(#SVGID_151_);}
	.st155{fill:url(#SVGID_152_);}
	.st156{fill:url(#SVGID_153_);}
	.st157{fill:url(#SVGID_154_);}
	.st158{fill:url(#SVGID_155_);}
	.st159{fill:url(#SVGID_156_);}
	.st160{fill:url(#SVGID_157_);}
	.st161{fill:url(#SVGID_158_);}
	.st162{fill:url(#SVGID_159_);}
	.st163{fill:url(#SVGID_160_);}
	.st164{fill:url(#SVGID_161_);}
	.st165{fill:url(#SVGID_162_);}
	.st166{fill:url(#SVGID_163_);}
	.st167{fill:url(#SVGID_164_);}
	.st168{fill:url(#SVGID_165_);}
	.st169{fill:url(#SVGID_166_);}
	.st170{fill:url(#SVGID_167_);}
</style>
<g>
	<g>
		<g>
			<g>
				<path class="st1" d="M433.11,430.03l23.65-0.14l0.75,123.91l-28.32,0.17l-51.98-88.55l0.54,88.86l-23.65,0.14l-0.75-123.91
					l28.06-0.17l52.25,88.02L433.11,430.03z"/>
				<path class="st1" d="M558.55,429.27l23.65-0.14l0.75,123.91l-28.32,0.17l-51.98-88.55l0.54,88.86l-23.65,0.14l-0.75-123.91
					l28.06-0.17l52.25,88.02L558.55,429.27z"/>
				<path class="st1" d="M643.98,555.12c-6.2,0.04-12.02-0.75-17.47-2.35c-5.45-1.6-10.28-3.97-14.48-7.1
					c-4.21-3.13-7.71-6.96-10.51-11.5c-2.8-4.54-4.65-9.79-5.56-15.74l23.29-5.4c1.78,7.47,4.81,12.88,9.07,16.25
					c4.26,3.36,9.55,5.02,15.85,4.99c5.87-0.04,10.4-1.41,13.6-4.11c3.19-2.71,4.77-6.45,4.74-11.25c-0.02-2.8-0.71-5.17-2.08-7.09
					c-1.37-1.92-3.2-3.57-5.49-4.96c-2.29-1.39-4.94-2.57-7.93-3.54c-3-0.97-6.13-1.98-9.4-3.01c-4.36-1.38-8.77-2.9-13.24-4.56
					c-4.47-1.67-8.53-3.86-12.19-6.59c-3.66-2.72-6.64-6.15-8.95-10.29c-2.31-4.13-3.48-9.36-3.52-15.67
					c-0.03-5.49,0.94-10.49,2.93-15c1.98-4.51,4.76-8.38,8.33-11.62c3.57-3.23,7.85-5.74,12.84-7.53
					c4.99-1.78,10.48-2.69,16.46-2.73c5.11-0.03,10.14,0.55,15.1,1.75c4.95,1.2,9.48,3.1,13.57,5.7c4.09,2.6,7.62,6.03,10.58,10.28
					c2.96,4.25,5.11,9.35,6.45,15.3l-21.23,5.39c-2-6.18-4.84-10.69-8.51-13.53c-3.67-2.84-8.5-4.24-14.5-4.21
					c-5.56,0.03-10.02,1.38-13.39,4.02c-3.36,2.65-5.03,6.2-5,10.63c0.01,2.45,0.65,4.53,1.92,6.21c1.26,1.69,2.96,3.14,5.1,4.35
					c2.13,1.21,4.62,2.25,7.46,3.11c2.84,0.86,5.84,1.75,9.01,2.66c4.48,1.26,9.06,2.72,13.76,4.39c4.7,1.67,8.99,3.92,12.88,6.76
					c3.89,2.84,7.1,6.47,9.63,10.9c2.54,4.43,3.82,10.09,3.87,16.98c0.03,5.73-0.97,10.9-3,15.53c-2.04,4.63-4.92,8.62-8.66,11.97
					c-3.73,3.35-8.26,5.95-13.57,7.79C656.42,554.14,650.5,555.08,643.98,555.12z"/>
				<path class="st1" d="M744.29,553.81c-6.53,0.04-12.51-1.04-17.96-3.22c-5.45-2.19-10.15-5.31-14.09-9.38
					c-3.94-4.07-7.02-8.92-9.22-14.58c-2.21-5.65-3.33-11.87-3.38-18.65c-0.04-6.78,1.01-12.98,3.15-18.6
					c2.14-5.62,5.16-10.46,9.05-14.52c3.89-4.05,8.55-7.21,13.97-9.46c5.42-2.25,11.4-3.4,17.92-3.44
					c10.55-0.06,19.45,2.69,26.72,8.25c7.26,5.56,11.91,13.66,13.93,24.28l-20.87,2.23c-1.23-5.37-3.56-9.36-7.01-11.96
					c-3.44-2.61-7.77-3.9-12.99-3.86c-6.53,0.04-11.73,2.56-15.61,7.54c-3.88,4.99-5.8,11.46-5.76,19.4
					c0.05,8.06,2.05,14.57,5.99,19.51c3.95,4.94,9.18,7.39,15.7,7.35c5.22-0.03,9.53-1.37,12.94-4.02
					c3.41-2.65,5.69-6.66,6.86-12.05l20.89,1.98c-0.95,5.26-2.61,9.95-4.97,14.05c-2.37,4.11-5.31,7.57-8.83,10.39
					c-3.52,2.83-7.53,4.98-12.03,6.47C754.21,553.02,749.4,553.78,744.29,553.81z"/>
				<path class="st1" d="M872.73,535.33c0.02,2.69,0.08,5.17,0.21,7.45c0.12,2.28,0.57,4.35,1.34,6.21l0.01,2.28l-22.35,0.14
					l-1.05-12.09c-2.8,4.69-6.72,8.19-11.76,10.5c-5.04,2.31-10.28,3.48-15.72,3.51c-3.26,0.02-6.5-0.37-9.71-1.17
					c-3.21-0.8-6.1-2.15-8.67-4.07c-2.57-1.91-4.62-4.38-6.16-7.41c-1.54-3.03-2.32-6.76-2.35-11.2c-0.03-4.91,0.87-9.03,2.7-12.37
					c1.83-3.34,4.2-6.13,7.13-8.37c2.92-2.24,6.23-4.01,9.92-5.32c3.69-1.31,7.38-2.38,11.07-3.22l14.99-3.77
					c2.17-0.6,3.96-1.31,5.37-2.14c1.41-0.82,2.11-2.29,2.09-4.39c-0.02-4.09-1.49-7-4.38-8.74c-2.89-1.74-6.24-2.59-10.05-2.57
					c-4.57,0.03-8.31,1.19-11.23,3.49c-2.92,2.3-4.81,5.67-5.65,10.11l-21.72-3.37c1.79-9.48,6.1-16.4,12.92-20.76
					c6.82-4.36,15.46-6.58,25.9-6.64c11.96-0.07,21.09,2.62,27.37,8.07c6.29,5.46,9.46,13.5,9.53,24.13L872.73,535.33z
					 M829.99,536.46c2.72-0.02,5.35-0.62,7.9-1.8c2.55-1.18,4.82-2.92,6.82-5.21c2-2.29,3.58-5.16,4.76-8.62
					c1.17-3.45,1.75-7.46,1.72-12.02L831,514.55c-3.15,0.72-5.94,1.99-8.38,3.82c-2.44,1.83-3.64,4.61-3.62,8.35
					c0.02,3.27,1.07,5.72,3.14,7.34C824.22,535.68,826.84,536.48,829.99,536.46z"/>
				<path class="st1" d="M940.46,460.78c10.44-0.06,18.26,2.58,23.46,7.92c5.2,5.34,7.83,12.98,7.89,22.91l0.36,59.06l-22.51,0.14
					l-0.33-53.98c-0.04-5.96-1.56-10.24-4.56-12.86c-3.01-2.61-6.79-3.9-11.36-3.87c-4.68,0.03-8.83,1.49-12.45,4.37
					c-3.63,2.89-5.74,7.89-6.35,15.02l0.31,51.53l-22.67,0.14l-0.54-88.33l22.67-0.14l0.06,9.99c2.91-3.76,6.59-6.67,11.04-8.74
					C929.92,461.86,934.91,460.81,940.46,460.78z"/>
			</g>
			<g>
				<path class="st1" d="M380.05,582.58l7.92-0.05l0.25,41.48l-9.48,0.06l-17.4-29.64l0.18,29.74l-7.92,0.05l-0.25-41.48l9.39-0.06
					l17.49,29.46L380.05,582.58z"/>
				<path class="st1" d="M427.49,582.3l7.92-0.05l0.25,41.48l-9.48,0.06l-17.4-29.64l0.18,29.74l-7.92,0.05l-0.25-41.48l9.39-0.06
					l17.49,29.46L427.49,582.3z"/>
				<path class="st1" d="M466.63,624.36c-2.88,0.02-5.53-0.49-7.95-1.54c-2.43-1.04-4.53-2.5-6.3-4.39
					c-1.77-1.89-3.16-4.15-4.16-6.78c-1.01-2.63-1.52-5.55-1.54-8.76c-0.02-3.21,0.46-6.13,1.43-8.78c0.97-2.65,2.33-4.92,4.08-6.83
					c1.75-1.91,3.83-3.39,6.24-4.44c2.41-1.05,5.06-1.59,7.94-1.6c2.18-0.01,4.24,0.28,6.18,0.87c1.93,0.59,3.68,1.45,5.26,2.58
					c1.57,1.13,2.95,2.48,4.15,4.05c1.19,1.58,2.14,3.36,2.84,5.35l-7.41,2.92c-0.85-2.5-2.24-4.46-4.16-5.9
					c-1.92-1.43-4.19-2.15-6.81-2.13c-1.75,0.01-3.35,0.35-4.8,1.03c-1.45,0.67-2.7,1.61-3.75,2.81c-1.05,1.2-1.86,2.65-2.43,4.36
					c-0.57,1.7-0.85,3.59-0.84,5.67c0.01,2.07,0.31,3.96,0.91,5.66c0.59,1.7,1.42,3.14,2.48,4.33c1.06,1.19,2.32,2.11,3.78,2.76
					c1.46,0.66,3.06,0.98,4.81,0.97c2.62-0.02,4.88-0.74,6.79-2.18c1.9-1.44,3.26-3.41,4.09-5.92l7.44,2.77
					c-0.68,2-1.61,3.8-2.78,5.41c-1.17,1.61-2.54,2.99-4.1,4.13c-1.56,1.14-3.3,2.02-5.23,2.64
					C470.86,624.03,468.81,624.35,466.63,624.36z"/>
				<path class="st1" d="M495.61,623.36l-0.25-41.48l7.92-0.05l0.1,17.01l16.76-0.1l-0.1-17.01l7.92-0.05l0.25,41.48l-7.92,0.05
					l-0.1-17.13l-16.76,0.1l0.1,17.13L495.61,623.36z"/>
				<path class="st1" d="M568.07,622.92l-2.95-8.67l-16.11,0.1l-2.84,8.7l-8.41,0.05l14.22-41.56l9.77-0.06l14.67,41.39
					L568.07,622.92z M551.32,607.36l11.41-0.07l-5.78-17.15L551.32,607.36z"/>
				<path class="st1" d="M586.03,622.81l-0.25-41.48l7.92-0.05l0.25,41.48L586.03,622.81z"/>
				<path class="st1" d="M633.23,581.05l7.92-0.05l0.25,41.48l-9.48,0.06l-17.4-29.64l0.18,29.74l-7.92,0.05l-0.25-41.48l9.39-0.06
					l17.49,29.46L633.23,581.05z"/>
				<path class="st1" d="M696.23,588.12l-14.63,0.09l0.06,9.62l13.05-0.08l0.04,7.33l-13.05,0.08l0.06,9.62l14.63-0.09l0.05,7.45
					l-22.55,0.14l-0.25-41.48l22.55-0.14L696.23,588.12z"/>
				<path class="st1" d="M704.79,622.09l15.05-21.62l-14.92-19.86l9.61-0.06l9.91,13.67l9.8-13.79l9.61-0.06l-14.68,20.04
					l15.31,21.44l-9.88,0.06l-10.08-14.49l-9.85,14.61L704.79,622.09z"/>
				<path class="st1" d="M777.89,583.34c1.17,1.01,2.08,2.33,2.73,3.94c0.65,1.62,0.98,3.56,0.99,5.83
					c0.02,2.62-0.43,5.01-1.35,7.17c-0.92,2.16-2.35,3.81-4.31,4.95c-1.49,0.87-3.07,1.39-4.74,1.55c-1.67,0.17-3.15,0.25-4.42,0.26
					l-4.86,0.03l0.09,14.67l-7.92,0.05l-0.25-41.48l12.78-0.08c2.73-0.02,4.98,0.22,6.75,0.72
					C775.14,581.46,776.64,582.25,777.89,583.34z M771.65,598.75c1.38-1.02,2.06-2.73,2.04-5.12c-0.01-2.31-0.68-3.99-2-5.03
					c-0.77-0.58-1.72-0.95-2.85-1.1c-1.13-0.15-2.24-0.22-3.33-0.21l-3.71,0.02l0.08,12.73l3.71-0.02c1.02-0.01,2.1-0.08,3.25-0.22
					C769.99,599.65,770.92,599.3,771.65,598.75z"/>
				<path class="st1" d="M792.48,621.56l-0.25-41.48l7.92-0.05l0.21,34.03l12.39-0.08l0.05,7.45L792.48,621.56z"/>
				<path class="st1" d="M839.52,622.09c-2.88,0.02-5.53-0.49-7.96-1.54c-2.43-1.04-4.53-2.5-6.29-4.39
					c-1.76-1.89-3.14-4.15-4.14-6.78c-1-2.63-1.51-5.55-1.53-8.76c-0.02-3.21,0.45-6.13,1.42-8.78c0.97-2.65,2.32-4.92,4.06-6.83
					c1.74-1.91,3.82-3.39,6.23-4.44c2.42-1.05,5.07-1.59,7.95-1.6c2.92-0.02,5.59,0.49,8.02,1.51c2.43,1.02,4.53,2.48,6.29,4.36
					c1.76,1.89,3.13,4.15,4.11,6.78c0.98,2.63,1.48,5.56,1.5,8.76c0.02,3.21-0.45,6.13-1.4,8.78c-0.95,2.65-2.29,4.92-4.03,6.83
					c-1.74,1.91-3.82,3.4-6.23,4.47C845.11,621.53,842.44,622.08,839.52,622.09z M839.48,614.29c1.74-0.01,3.34-0.35,4.79-1.03
					c1.45-0.67,2.7-1.61,3.74-2.81c1.05-1.2,1.85-2.65,2.42-4.36c0.57-1.7,0.85-3.59,0.84-5.67c-0.01-2.07-0.32-3.96-0.91-5.66
					c-0.59-1.7-1.42-3.14-2.48-4.33c-1.06-1.19-2.32-2.11-3.78-2.76c-1.46-0.66-3.06-0.98-4.8-0.97c-1.74,0.01-3.34,0.35-4.79,1.03
					c-1.45,0.67-2.7,1.61-3.74,2.81c-1.05,1.2-1.86,2.65-2.43,4.36c-0.57,1.71-0.85,3.59-0.84,5.67c0.01,2.07,0.31,3.96,0.91,5.66
					c0.59,1.7,1.42,3.14,2.48,4.33c1.06,1.19,2.32,2.11,3.78,2.76C836.13,613.98,837.73,614.3,839.48,614.29z"/>
				<path class="st1" d="M891.09,620.96l-9.32-15.14l-3.55,0.02l0.09,15.19l-7.92,0.05l-0.25-41.48l12.78-0.08
					c2.73-0.02,4.98,0.22,6.75,0.72c1.77,0.5,3.28,1.29,4.52,2.38c1.17,1.01,2.08,2.33,2.73,3.94c0.65,1.62,0.98,3.56,0.99,5.83
					c0.02,2.58-0.43,4.98-1.35,7.2c-0.92,2.22-2.35,3.9-4.31,5.04c-0.29,0.16-0.56,0.3-0.82,0.42c-0.25,0.12-0.53,0.24-0.82,0.36
					l10.09,15.49L891.09,620.96z M878.1,586.6l0.08,12.73l3.71-0.02c1.02-0.01,2.1-0.08,3.25-0.22c1.15-0.14,2.08-0.49,2.81-1.04
					c1.38-1.03,2.06-2.73,2.04-5.12c-0.01-2.31-0.68-3.98-2-5.03c-0.77-0.58-1.72-0.95-2.85-1.1c-1.13-0.15-2.24-0.22-3.33-0.21
					L878.1,586.6z"/>
				<path class="st1" d="M933.2,586.68l-14.63,0.09l0.06,9.62l13.05-0.08l0.04,7.33l-13.05,0.08l0.06,9.62l14.63-0.09l0.05,7.45
					l-22.55,0.14l-0.25-41.48l22.55-0.14L933.2,586.68z"/>
				<path class="st1" d="M965.62,620.51l-9.32-15.14l-3.55,0.02l0.09,15.19l-7.92,0.05l-0.25-41.48l12.78-0.08
					c2.73-0.02,4.98,0.22,6.75,0.72c1.77,0.5,3.27,1.29,4.52,2.38c1.17,1.01,2.08,2.33,2.73,3.94c0.65,1.62,0.98,3.56,0.99,5.83
					c0.02,2.58-0.43,4.98-1.35,7.2c-0.92,2.22-2.35,3.9-4.31,5.04c-0.29,0.16-0.56,0.3-0.82,0.42c-0.25,0.12-0.53,0.24-0.82,0.36
					l10.09,15.49L965.62,620.51z M952.63,586.15l0.08,12.73l3.71-0.02c1.02-0.01,2.1-0.08,3.25-0.23c1.15-0.14,2.08-0.49,2.81-1.04
					c1.38-1.02,2.06-2.73,2.04-5.12c-0.01-2.31-0.68-3.98-2-5.03c-0.77-0.58-1.72-0.95-2.85-1.1c-1.13-0.15-2.24-0.22-3.33-0.21
					L952.63,586.15z"/>
			</g>
		</g>
		<g>
			<path class="st1" d="M280.87,437.65c-19.48-19.57-45.39-30.35-72.95-30.35c-27.56,0-53.46,10.78-72.95,30.35
				c-19.48,19.57-30.2,45.58-30.2,73.24c0,27.66,10.73,53.67,30.2,73.24c19.49,19.57,45.39,30.35,72.95,30.35
				c16.21,0,31.84-3.73,45.94-10.78c7.06-3.53,13.73-7.89,19.89-13.04c2.46-2.05,4.83-4.23,7.12-6.53
				c19.48-19.57,30.2-45.58,30.2-73.24C311.08,483.22,300.35,457.21,280.87,437.65z M263.07,581.4c-4.73,3.74-9.83,7.01-15.25,9.74
				c-12.01,6.06-25.56,9.47-39.89,9.47c-49.23,0-89.28-40.25-89.28-89.72s40.05-89.72,89.28-89.72c49.23,0,89.28,40.25,89.28,89.72
				C297.21,539.46,283.84,564.96,263.07,581.4z"/>
			<path class="st1" d="M280.87,437.65c-19.48-19.57-45.39-30.35-72.95-30.35c-27.56,0-53.46,10.78-72.95,30.35
				c-19.48,19.57-30.2,45.58-30.2,73.24c0,27.66,10.73,53.67,30.2,73.24c19.49,19.57,45.39,30.35,72.95,30.35
				c16.21,0,31.84-3.73,45.94-10.78c7.06-3.53,13.73-7.89,19.89-13.04c2.46-2.05,4.83-4.23,7.12-6.53
				c19.48-19.57,30.2-45.58,30.2-73.24C311.08,483.22,300.35,457.21,280.87,437.65z M263.07,581.4c-4.73,3.74-9.83,7.01-15.25,9.74
				c-12.01,6.06-25.56,9.47-39.89,9.47c-49.23,0-89.28-40.25-89.28-89.72s40.05-89.72,89.28-89.72c49.23,0,89.28,40.25,89.28,89.72
				C297.21,539.46,283.84,564.96,263.07,581.4z"/>
			<g>
				<path class="st1" d="M331.95,669.52c-2.26,2.13-5.15,3.19-8.03,3.19c-3.11,0-6.22-1.24-8.53-3.68l-60.52-67.87l-3.96-0.58
					c-2.47-2.63-3.5-6.1-3.1-9.42c5.42-2.73,10.53-6,15.25-9.74c1.81,0.59,3.5,1.63,4.9,3.11l3.11,6.39l61.37,62.07
					C336.89,657.68,336.66,665.09,331.95,669.52z"/>
			</g>
			<g>
				<linearGradient id="SVGID_1_" gradientUnits="userSpaceOnUse" x1="181.3351" y1="585.152" x2="181.3351" y2="558.8182">
					<stop  offset="0" style="stop-color:#89743D"/>
					<stop  offset="0.5168" style="stop-color:#E1CB81"/>
					<stop  offset="0.9916" style="stop-color:#E9D58D"/>
					<stop  offset="1" style="stop-color:#FFFFFF"/>
				</linearGradient>
				<path class="st2" d="M177.8,582.56c2.31,0.98,4.67,1.85,7.07,2.59v-23.03c-2.52-0.69-4.91-1.8-7.07-3.3V582.56z"/>
				<linearGradient id="SVGID_2_" gradientUnits="userSpaceOnUse" x1="268.7469" y1="547.6982" x2="268.7469" y2="474.0788">
					<stop  offset="0" style="stop-color:#89743D"/>
					<stop  offset="0.5168" style="stop-color:#E1CB81"/>
					<stop  offset="0.9916" style="stop-color:#E9D58D"/>
					<stop  offset="1" style="stop-color:#FFFFFF"/>
				</linearGradient>
				<path class="st3" d="M276.31,474.36L276.31,474.36c-0.05-0.09-0.1-0.19-0.15-0.28v8.51v20.74h-14.72l-4.07,4.31
					c-0.96,1.02-2,1.93-3.12,2.75h21.91v37.3c3.15-5.87,5.52-12.13,7.07-18.64V510.4v-7.07v-10.61
					C281.71,486.31,279.39,480.15,276.31,474.36z"/>
				<linearGradient id="SVGID_3_" gradientUnits="userSpaceOnUse" x1="189.7196" y1="548.1058" x2="189.7196" y2="436.1285">
					<stop  offset="0" style="stop-color:#89743D"/>
					<stop  offset="0.5168" style="stop-color:#E1CB81"/>
					<stop  offset="0.9916" style="stop-color:#E9D58D"/>
					<stop  offset="1" style="stop-color:#FFFFFF"/>
				</linearGradient>
				<path class="st4" d="M177.8,510.4v9.76l7.07-7.49v-2.27h2.14l0.12-0.13c3.49-3.7,8.14-6.13,13.13-6.94h-15.39v-40.24h44.46v6.97
					l6.58-6.97h0.49v-0.52l0.33-0.35c2.76-2.92,6.15-5.03,9.88-6.2h-10.21v-17.49c-2.31-0.92-4.67-1.72-7.07-2.41v19.89h-44.46
					v-19.4c-2.4,0.75-4.76,1.61-7.07,2.59v16.81h-24.74c-2.23,2.25-4.3,4.61-6.22,7.07h30.96v40.24h-37.9v-29.66
					c-3.11,5.72-5.48,11.81-7.07,18.15v11.51v7.07v19.56c1.58,6.34,3.95,12.43,7.07,18.15V510.4H177.8z"/>
				<linearGradient id="SVGID_4_" gradientUnits="userSpaceOnUse" x1="158.8423" y1="557.7081" x2="158.8423" y2="550.6398">
					<stop  offset="0" style="stop-color:#89743D"/>
					<stop  offset="0.5168" style="stop-color:#E1CB81"/>
					<stop  offset="0.9916" style="stop-color:#E9D58D"/>
					<stop  offset="1" style="stop-color:#FFFFFF"/>
				</linearGradient>
				<path class="st5" d="M170.56,550.64h-29.21c1.44,2.43,3.03,4.79,4.74,7.07h30.24c-0.41-0.34-0.82-0.69-1.2-1.06
					C173.23,554.86,171.71,552.82,170.56,550.64z"/>
				<linearGradient id="SVGID_5_" gradientUnits="userSpaceOnUse" x1="240.0616" y1="585.6486" x2="240.0616" y2="512.0057">
					<stop  offset="0" style="stop-color:#89743D"/>
					<stop  offset="0.5168" style="stop-color:#E1CB81"/>
					<stop  offset="0.9916" style="stop-color:#E9D58D"/>
					<stop  offset="1" style="stop-color:#FFFFFF"/>
				</linearGradient>
				<path class="st6" d="M236.39,514.5c-2.45-0.45-4.81-1.29-6.99-2.5l-0.08,0.08v38.55h-16.77l-4.77,5.06
					c-0.68,0.72-1.4,1.39-2.16,2.01h23.7v27.94c2.4-0.68,4.75-1.49,7.07-2.41v-25.53h33.36c1.72-2.28,3.3-4.64,4.74-7.07h-38.1
					V514.5z"/>
				<linearGradient id="SVGID_6_" gradientUnits="userSpaceOnUse" x1="222.2522" y1="560.1244" x2="222.2522" y2="457.7829">
					<stop  offset="0" style="stop-color:#89743D"/>
					<stop  offset="0.5168" style="stop-color:#E1CB81"/>
					<stop  offset="0.9916" style="stop-color:#E9D58D"/>
					<stop  offset="1" style="stop-color:#FFFFFF"/>
				</linearGradient>
				<path class="st7" d="M218.68,540.05c6.27-6.64,7.16-16.44,2.85-23.99l7.44-7.65c3.48,2.43,7.53,3.66,11.59,3.66
					c5.39,0,10.78-2.13,14.76-6.36l12.95-13.72c7.68-8.14,7.3-21-0.84-28.68c-3.94-3.72-9.09-5.68-14.51-5.52
					c-5.42,0.16-10.45,2.42-14.17,6.36l-12.95,13.72c-6.61,7-7.23,17.51-2.09,25.19l-7.08,7.28c-8.16-6.58-20.16-5.89-27.47,1.86
					l-12.95,13.72c-7.68,8.14-7.3,21,0.84,28.68c3.91,3.69,8.92,5.52,13.92,5.52c5.39,0,10.78-2.13,14.76-6.36L218.68,540.05z
					 M230.96,482.72L243.91,469c2.42-2.57,5.7-4.04,9.23-4.14c0.13,0,0.26-0.01,0.39-0.01c3.38,0,6.59,1.27,9.06,3.6
					c5.3,5,5.55,13.38,0.54,18.68l-12.95,13.72c-4.27,4.53-11.01,5.35-16.18,2.38l11.04-11.35c1.44-1.48,1.41-3.86-0.07-5.3
					c-1.48-1.44-3.86-1.41-5.3,0.07l-10.85,11.15C226.35,492.98,227.02,486.9,230.96,482.72z M181.91,549.46
					c-5.3-5-5.55-13.38-0.54-18.68l12.95-13.72c2.6-2.75,6.1-4.14,9.62-4.14c2.72,0,5.44,0.85,7.75,2.53l-12.12,12.45
					c-1.44,1.48-1.41,3.86,0.07,5.3c0.73,0.71,1.67,1.06,2.61,1.06c0.98,0,1.95-0.38,2.69-1.13l11.34-11.66
					c1.72,4.58,0.84,9.94-2.74,13.73l-12.95,13.72C195.59,554.22,187.21,554.46,181.91,549.46z"/>
			</g>
		</g>
	</g>
</g>
</svg>
